<?xml version="1.0" encoding="utf-8"?>
<!-- Generator: Adobe Illustrator 26.0.2, SVG Export Plug-In . SVG Version: 6.00 Build 0)  -->
<svg version="1.1" id="Warstwa_1" xmlns="http://www.w3.org/2000/svg" xmlns:xlink="http://www.w3.org/1999/xlink" x="0px" y="0px"
	 viewBox="0 0 512 173" style="enable-background:new 0 0 512 173;" xml:space="preserve">
<style type="text/css">
	.st0{filter:url(#Adobe_OpacityMaskFilter);}
	.st1{enable-background:new    ;}
	.st2{clip-path:url(#SVGID_00000008829123450842474680000012222323363998407603_);fill:#FFFFFF;}
	.st3{clip-path:url(#SVGID_00000008829123450842474680000012222323363998407603_);}
	.st4{clip-path:url(#SVGID_00000146464776140729972270000016392520174956418183_);fill:#C6C6C5;}
	.st5{mask:url(#SVGID_1_);}
	.st6{clip-path:url(#SVGID_00000125577774937466862420000015587793208565947565_);}
	.st7{clip-path:url(#SVGID_00000133503719064917801470000000375736156565811871_);fill:#1D1D1B;}
	.st8{clip-path:url(#SVGID_00000133503719064917801470000000375736156565811871_);}
	.st9{filter:url(#Adobe_OpacityMaskFilter_00000116923228189263178790000005367086249057328527_);}
	.st10{clip-path:url(#SVGID_00000121270924659168327530000007615977715437747092_);fill:#FFFFFF;}
	.st11{clip-path:url(#SVGID_00000121270924659168327530000007615977715437747092_);fill:#C6C6C5;}
	.st12{mask:url(#SVGID_00000152228998431240091760000012893304908321295527_);}
	.st13{clip-path:url(#SVGID_00000004533207622460747390000010645334383769765524_);}
	.st14{clip-path:url(#SVGID_00000025437737729349150890000014645979056584961195_);}
	.st15{fill:#1D1D1B;}
	.st16{font-family:'Lato-Medium';}
	.st17{font-size:0.4228px;}
	.st18{font-size:34.3288px;}
	.st19{letter-spacing:13;}
	.st20{letter-spacing:15;}
	.st21{clip-path:url(#SVGID_00000127012034951448777910000003258323673698562739_);}
	.st22{font-size:10.5693px;}
	.st23{letter-spacing:7;}
	.st24{letter-spacing:6;}
	.st25{clip-path:url(#SVGID_00000079457689114235868630000012123023196927508895_);}
	.st26{font-family:'Lato-Light';}
	.st27{fill:none;}
</style>
<defs>
	<filter id="Adobe_OpacityMaskFilter" filterUnits="userSpaceOnUse" x="41.9" y="30.71" width="87.1" height="108.54">
		<feColorMatrix  type="matrix" values="1 0 0 0 0  0 1 0 0 0  0 0 1 0 0  0 0 0 1 0"/>
	</filter>
</defs>
<mask maskUnits="userSpaceOnUse" x="41.9" y="30.71" width="87.1" height="108.54" id="SVGID_1_">
	<g class="st0">
		<rect x="41.89" y="30.71" width="87.1" height="108.54"/>
		<g>
			<defs>
				<rect id="SVGID_00000150060833833022042970000018325750454851890590_" x="41.9" y="30.71" width="87.1" height="108.54"/>
			</defs>
			<clipPath id="SVGID_00000050635428531509502670000009350494879701643193_">
				<use xlink:href="#SVGID_00000150060833833022042970000018325750454851890590_"  style="overflow:visible;"/>
			</clipPath>
			<g class="st1">
				
					<rect x="41.75" y="25.27" style="clip-path:url(#SVGID_00000050635428531509502670000009350494879701643193_);fill:#FFFFFF;" width="92.68" height="114.63"/>
				<g>
					<defs>
						<rect id="SVGID_00000029042295606684468240000015819920823418298797_" x="41.75" y="25.27" width="92.68" height="114.63"/>
					</defs>
					
						<clipPath id="SVGID_00000171715799125878375530000010090672300373733022_" style="clip-path:url(#SVGID_00000050635428531509502670000009350494879701643193_);">
						<use xlink:href="#SVGID_00000029042295606684468240000015819920823418298797_"  style="overflow:visible;"/>
					</clipPath>
					<path style="clip-path:url(#SVGID_00000171715799125878375530000010090672300373733022_);fill:#C6C6C5;" d="M26.39,84.73
						c0,0,75.84-31.07,127-28.78c51.17,2.28-20.56-46.6-20.56-46.6L31.41,23.51L26.39,84.73z"/>
				</g>
			</g>
		</g>
	</g>
</mask>
<g class="st5">
	<g>
		<defs>
			<rect id="SVGID_00000132766758165179503960000012709611091419603641_" x="41.9" y="30.71" width="87.1" height="108.54"/>
		</defs>
		<clipPath id="SVGID_00000078759887408927328310000014080287327094299279_">
			<use xlink:href="#SVGID_00000132766758165179503960000012709611091419603641_"  style="overflow:visible;"/>
		</clipPath>
		<g style="clip-path:url(#SVGID_00000078759887408927328310000014080287327094299279_);">
			<defs>
				<rect id="SVGID_00000165926806596024865650000015487834806970032546_" x="41.9" y="30.71" width="87.1" height="108.54"/>
			</defs>
			<clipPath id="SVGID_00000169536973935032051510000016090643761974655644_">
				<use xlink:href="#SVGID_00000165926806596024865650000015487834806970032546_"  style="overflow:visible;"/>
			</clipPath>
			<path style="clip-path:url(#SVGID_00000169536973935032051510000016090643761974655644_);fill:#1D1D1B;" d="M74.79,123.06
				l-23.84-14.07l0.9-1.53c3.44-5.83,2.24-21.97,1.48-27.7c-1.29-9.67-2.05-19.96,3.91-30.06c10.78-18.27,34.45-24.44,52.76-13.75
				l0.19,0.11c18.2,10.88,24.23,34.59,13.46,52.84c-5.96,10.1-15.34,14.4-24.43,17.94c-5.38,2.11-20.09,8.86-23.53,14.68
				L74.79,123.06z M55.69,107.66l17.97,10.61c6.05-7.52,23.49-14.42,24.27-14.72c10.66-4.15,17.79-8.17,22.67-16.44
				c9.79-16.58,4.31-38.11-12.22-47.99l-0.17-0.1c-16.62-9.7-38.11-4.1-47.91,12.49c-4.88,8.27-4.96,16.45-3.45,27.79
				C56.97,80.14,59.35,98.73,55.69,107.66"/>
			<polygon style="clip-path:url(#SVGID_00000169536973935032051510000016090643761974655644_);fill:#1D1D1B;" points="
				61.25,118.78 49.33,111.74 47.49,114.86 59.41,121.9 71.34,128.94 73.17,125.82 			"/>
			<polygon style="clip-path:url(#SVGID_00000169536973935032051510000016090643761974655644_);fill:#1D1D1B;" points="
				57.88,124.48 45.96,117.44 44.12,120.56 56.05,127.6 67.97,134.64 69.81,131.52 			"/>
			<path style="clip-path:url(#SVGID_00000169536973935032051510000016090643761974655644_);fill:#1D1D1B;" d="M63.26,135.26
				c-0.23,0.09-2.23,1.28-10.03-3.25c-7.13-4.15-7.2-6.66-7.38-7.03l-3.23-1.85c-0.2,0.2-0.87,1.07-0.7,2.35
				c0.36,2.63,3.38,5.91,9.65,9.61l0,0c6.27,3.7,10.62,4.81,13.07,3.8c1.28-0.52,1.64-1.47,1.72-1.75L63.26,135.26z"/>
			<path style="clip-path:url(#SVGID_00000169536973935032051510000016090643761974655644_);" d="M98.81,86.73l-0.06,0.61
				c0,0-0.09,0.01-0.25,0.03l4.23,2.5c-4.27,2.37-30.59,17.21-36.51,26.63c-1.57-0.84-1.59-0.85-1.86-1.04
				c-0.3-0.2-0.91-0.61-3.79-2.32c5.13-9.31,6.3-39.55,6.45-44.36l3.91,2.31c-0.06-0.15-0.1-0.23-0.1-0.23l0.5-0.35l-4.99-2.95
				l-0.02,0.6c-0.01,0.35-1.03,35.59-6.55,44.93l-0.18,0.3l0.3,0.18c3.12,1.84,3.75,2.27,4.05,2.47c0.33,0.22,0.33,0.22,2.22,1.23
				l0.3,0.16l0.17-0.29c5.82-9.85,36.65-26.79,36.97-26.96l0.55-0.3L98.81,86.73z"/>
			<path style="clip-path:url(#SVGID_00000169536973935032051510000016090643761974655644_);" d="M70.92,71.09
				c0.75,1.82,5.79,14.31,5.51,22.16c0,0.1,0,0.2,0,0.3c6.72-4.27,20.11-5.96,22.06-6.18c0.16-0.02,0.25-0.03,0.25-0.03l0.06-0.61
				l3.89-37.01L85.12,79.49c0.54,0.62,0.61,1.66,0.08,2.55c-0.63,1.06-1.85,1.5-2.73,0.98c0,0,0,0,0,0
				c-0.88-0.52-1.09-1.81-0.46-2.87c0.52-0.89,1.46-1.33,2.27-1.15l17.58-29.77L71.33,70.51l-0.5,0.35
				C70.82,70.86,70.86,70.94,70.92,71.09"/>
		</g>
	</g>
</g>
<defs>
	
		<filter id="Adobe_OpacityMaskFilter_00000148639202663349440790000006353907948837184949_" filterUnits="userSpaceOnUse" x="144.45" y="75.19" width="322" height="48.43">
		<feColorMatrix  type="matrix" values="1 0 0 0 0  0 1 0 0 0  0 0 1 0 0  0 0 0 1 0"/>
	</filter>
</defs>
<mask maskUnits="userSpaceOnUse" x="144.45" y="75.19" width="322" height="48.43" id="SVGID_00000113339664563231692070000008534468425474010787_">
	<g style="filter:url(#Adobe_OpacityMaskFilter_00000148639202663349440790000006353907948837184949_);">
		<rect x="144.45" y="75.19" width="322" height="48.43"/>
		<g>
			<defs>
				<rect id="SVGID_00000033334116532875052770000007760596567797542818_" x="144.45" y="75.19" width="322" height="48.43"/>
			</defs>
			<clipPath id="SVGID_00000031200820127358563730000003517903020427264899_">
				<use xlink:href="#SVGID_00000033334116532875052770000007760596567797542818_"  style="overflow:visible;"/>
			</clipPath>
			<g class="st1">
				
					<rect x="143.45" y="74.19" style="clip-path:url(#SVGID_00000031200820127358563730000003517903020427264899_);fill:#FFFFFF;" width="348.12" height="50.43"/>
				<polygon style="clip-path:url(#SVGID_00000031200820127358563730000003517903020427264899_);fill:#C6C6C5;" points="
					143.45,74.19 143.45,88.19 477.4,83.54 477.4,75.08 383.72,74.19 				"/>
			</g>
		</g>
	</g>
</mask>
<g style="mask:url(#SVGID_00000113339664563231692070000008534468425474010787_);">
	<g>
		<defs>
			<rect id="SVGID_00000100341210729153262430000012031461160619403169_" x="144.45" y="75.19" width="322" height="48.43"/>
		</defs>
		<clipPath id="SVGID_00000071520493160340228420000014231566150294423708_">
			<use xlink:href="#SVGID_00000100341210729153262430000012031461160619403169_"  style="overflow:visible;"/>
		</clipPath>
		<g style="clip-path:url(#SVGID_00000071520493160340228420000014231566150294423708_);">
			<defs>
				<rect id="SVGID_00000147208206578859599110000006306312198010067881_" x="144.45" y="75.19" width="322" height="48.43"/>
			</defs>
			<clipPath id="SVGID_00000145019195096372547890000011023326376074981770_">
				<use xlink:href="#SVGID_00000147208206578859599110000006306312198010067881_"  style="overflow:visible;"/>
			</clipPath>
			<g style="clip-path:url(#SVGID_00000145019195096372547890000011023326376074981770_);">
				<text transform="matrix(1 0 0 1 144.4471 104.6747)"><tspan x="0" y="0" class="st15 st16 st17">  </tspan><tspan x="0.59" y="0" class="st15 st16 st17"> </tspan></text>
			</g>
			<g style="clip-path:url(#SVGID_00000145019195096372547890000011023326376074981770_);">
				<text transform="matrix(1 0 0 1 145.3382 104.6747)"><tspan x="0" y="0" class="st15 st16 st18 st19">P</tspan><tspan x="34.5" y="0" class="st15 st16 st18 st20">AZDER</tspan><tspan x="223.22" y="0" class="st15 st16 st18 st20">S</tspan><tspan x="257.34" y="0" class="st15 st16 st18 st20">K</tspan><tspan x="295.71" y="0" class="st15 st16 st18">I</tspan></text>
			</g>
		</g>
		<g style="clip-path:url(#SVGID_00000071520493160340228420000014231566150294423708_);">
			<text transform="matrix(1 0 0 1 146.9559 120.7401)" class="st15 st16 st17"> </text>
		</g>
		<g style="clip-path:url(#SVGID_00000071520493160340228420000014231566150294423708_);">
			<defs>
				<rect id="SVGID_00000134225824353001955700000006971844004364021640_" x="144.45" y="75.19" width="322" height="48.43"/>
			</defs>
			<clipPath id="SVGID_00000036239352605527641510000012853728108903194795_">
				<use xlink:href="#SVGID_00000134225824353001955700000006971844004364021640_"  style="overflow:visible;"/>
			</clipPath>
			<g style="clip-path:url(#SVGID_00000036239352605527641510000012853728108903194795_);">
				<text transform="matrix(1 0 0 1 147.3587 120.7401)"><tspan x="0" y="0" class="st15 st16 st22 st23">P</tspan><tspan x="13.79" y="0" class="st15 st16 st22 st23">R</tspan><tspan x="27.77" y="0" class="st15 st16 st22 st23">O</tspan><tspan x="43.28" y="0" class="st15 st16 st22 st23">JEK</tspan><tspan x="83.1" y="0" class="st15 st16 st22 st23">T</tspan><tspan x="96.44" y="0" class="st15 st16 st22 st23">O</tspan><tspan x="112.2" y="0" class="st15 st16 st22 st24">W</tspan><tspan x="130.12" y="0" class="st15 st16 st22 st23">ANI</tspan><tspan x="170.58" y="0" class="st15 st16 st22">E</tspan></text>
			</g>
		</g>
		<g style="clip-path:url(#SVGID_00000071520493160340228420000014231566150294423708_);">
			<text transform="matrix(1 0 0 1 331.5008 120.7401)" class="st15 st16 st17"> </text>
		</g>
		<g style="clip-path:url(#SVGID_00000071520493160340228420000014231566150294423708_);">
			<defs>
				<rect id="SVGID_00000160904091724566736620000005612308601648377992_" x="144.45" y="75.19" width="322" height="48.43"/>
			</defs>
			<clipPath id="SVGID_00000172407443450341979590000015786899977265937839_">
				<use xlink:href="#SVGID_00000160904091724566736620000005612308601648377992_"  style="overflow:visible;"/>
			</clipPath>
			<g style="clip-path:url(#SVGID_00000172407443450341979590000015786899977265937839_);">
				<text transform="matrix(1 0 0 1 331.9041 120.7401)"><tspan x="0" y="0" class="st15 st26 st22 st23">G</tspan><tspan x="15.31" y="0" class="st15 st26 st22 st23">RA</tspan><tspan x="43.57" y="0" class="st15 st26 st22 st23">F</tspan><tspan x="57.01" y="0" class="st15 st26 st22 st23">I</tspan><tspan x="67.56" y="0" class="st15 st26 st22 st23">C</tspan><tspan x="82.39" y="0" class="st15 st26 st22 st23">Z</tspan><tspan x="96.47" y="0" class="st15 st26 st22 st23">N</tspan><tspan x="111.86" y="0" class="st15 st26 st22">E</tspan></text>
			</g>
		</g>
	</g>
</g>
<rect x="144.45" y="-18.52" class="st27" width="322" height="142.13"/>
</svg>
